<?xml version="1.0" encoding="utf-8" standalone="no"?>
<!DOCTYPE svg PUBLIC "-//W3C//DTD SVG 1.1//EN"
  "http://www.w3.org/Graphics/SVG/1.1/DTD/svg11.dtd">
<!-- Created with matplotlib (http://matplotlib.org/) -->
<svg height="408.874375pt" version="1.1" viewBox="0 0 836.603125 408.874375" width="836.603125pt" xmlns="http://www.w3.org/2000/svg" xmlns:xlink="http://www.w3.org/1999/xlink">
 <defs>
  <style type="text/css">
*{stroke-linecap:butt;stroke-linejoin:round;}
  </style>
 </defs>
 <g id="figure_1">
  <g id="patch_1">
   <path d="M 0 408.874375 
L 836.603125 408.874375 
L 836.603125 0 
L 0 0 
z
" style="fill:none;"/>
  </g>
  <g id="axes_1">
   <g id="line2d_1">
    <path clip-path="url(#p30ac6b39e1)" d="M 204.603125 361.999943 
L 39.421307 361.999943 
M 39.421307 196.818125 
L 39.421307 361.999943 
M 204.603125 196.818125 
L 39.421307 361.999943 
M 204.603125 196.818125 
L 204.603125 361.999943 
M 204.603125 196.818125 
L 39.421307 196.818125 
M 369.784943 196.818125 
L 204.603125 361.999943 
M 369.784943 196.818125 
L 204.603125 196.818125 
M 204.603125 31.636307 
L 39.421307 196.818125 
M 204.603125 31.636307 
L 204.603125 196.818125 
M 369.784943 31.636307 
L 204.603125 196.818125 
M 369.784943 31.636307 
L 369.784943 196.818125 
M 369.784943 31.636307 
L 204.603125 31.636307 
" style="fill:none;stroke:#808080;stroke-linecap:square;stroke-width:1.5;"/>
   </g>
   <g id="line2d_2"/>
   <g id="text_1">
    <!-- 1 -->
    <defs>
     <path d="M 12.40625 8.296875 
L 28.515625 8.296875 
L 28.515625 63.921875 
L 10.984375 60.40625 
L 10.984375 69.390625 
L 28.421875 72.90625 
L 38.28125 72.90625 
L 38.28125 8.296875 
L 54.390625 8.296875 
L 54.390625 0 
L 12.40625 0 
z
" id="DejaVuSans-31"/>
    </defs>
    <g transform="translate(369.784943 204.416562)scale(0.1 -0.1)">
     <use xlink:href="#DejaVuSans-31"/>
    </g>
   </g>
   <g id="text_2">
    <!-- -1 -->
    <defs>
     <path d="M 4.890625 31.390625 
L 31.203125 31.390625 
L 31.203125 23.390625 
L 4.890625 23.390625 
z
" id="DejaVuSans-2d"/>
    </defs>
    <g transform="translate(204.603125 369.598381)scale(0.1 -0.1)">
     <use xlink:href="#DejaVuSans-2d"/>
     <use x="36.083984" xlink:href="#DejaVuSans-31"/>
    </g>
   </g>
   <g id="text_3">
    <!-- 0 -->
    <defs>
     <path d="M 31.78125 66.40625 
Q 24.171875 66.40625 20.328125 58.90625 
Q 16.5 51.421875 16.5 36.375 
Q 16.5 21.390625 20.328125 13.890625 
Q 24.171875 6.390625 31.78125 6.390625 
Q 39.453125 6.390625 43.28125 13.890625 
Q 47.125 21.390625 47.125 36.375 
Q 47.125 51.421875 43.28125 58.90625 
Q 39.453125 66.40625 31.78125 66.40625 
z
M 31.78125 74.21875 
Q 44.046875 74.21875 50.515625 64.515625 
Q 56.984375 54.828125 56.984375 36.375 
Q 56.984375 17.96875 50.515625 8.265625 
Q 44.046875 -1.421875 31.78125 -1.421875 
Q 19.53125 -1.421875 13.0625 8.265625 
Q 6.59375 17.96875 6.59375 36.375 
Q 6.59375 54.828125 13.0625 64.515625 
Q 19.53125 74.21875 31.78125 74.21875 
z
" id="DejaVuSans-30"/>
    </defs>
    <g transform="translate(204.603125 204.416562)scale(0.1 -0.1)">
     <use xlink:href="#DejaVuSans-30"/>
    </g>
   </g>
   <g id="text_4">
    <!-- 0 -->
    <g transform="translate(369.784943 39.234744)scale(0.1 -0.1)">
     <use xlink:href="#DejaVuSans-30"/>
    </g>
   </g>
   <g id="text_5">
    <!-- 0 -->
    <g transform="translate(39.421307 369.598381)scale(0.1 -0.1)">
     <use xlink:href="#DejaVuSans-30"/>
    </g>
   </g>
   <g id="text_6">
    <!-- 1 -->
    <g transform="translate(39.421307 204.416562)scale(0.1 -0.1)">
     <use xlink:href="#DejaVuSans-31"/>
    </g>
   </g>
   <g id="text_7">
    <!-- -1 -->
    <g transform="translate(204.603125 39.234744)scale(0.1 -0.1)">
     <use xlink:href="#DejaVuSans-2d"/>
     <use x="36.083984" xlink:href="#DejaVuSans-31"/>
    </g>
   </g>
   <g id="text_8">
    <!-- Nodal weights -->
    <defs>
     <path d="M 9.8125 72.90625 
L 23.09375 72.90625 
L 55.421875 11.921875 
L 55.421875 72.90625 
L 64.984375 72.90625 
L 64.984375 0 
L 51.703125 0 
L 19.390625 60.984375 
L 19.390625 0 
L 9.8125 0 
z
" id="DejaVuSans-4e"/>
     <path d="M 30.609375 48.390625 
Q 23.390625 48.390625 19.1875 42.75 
Q 14.984375 37.109375 14.984375 27.296875 
Q 14.984375 17.484375 19.15625 11.84375 
Q 23.34375 6.203125 30.609375 6.203125 
Q 37.796875 6.203125 41.984375 11.859375 
Q 46.1875 17.53125 46.1875 27.296875 
Q 46.1875 37.015625 41.984375 42.703125 
Q 37.796875 48.390625 30.609375 48.390625 
z
M 30.609375 56 
Q 42.328125 56 49.015625 48.375 
Q 55.71875 40.765625 55.71875 27.296875 
Q 55.71875 13.875 49.015625 6.21875 
Q 42.328125 -1.421875 30.609375 -1.421875 
Q 18.84375 -1.421875 12.171875 6.21875 
Q 5.515625 13.875 5.515625 27.296875 
Q 5.515625 40.765625 12.171875 48.375 
Q 18.84375 56 30.609375 56 
z
" id="DejaVuSans-6f"/>
     <path d="M 45.40625 46.390625 
L 45.40625 75.984375 
L 54.390625 75.984375 
L 54.390625 0 
L 45.40625 0 
L 45.40625 8.203125 
Q 42.578125 3.328125 38.25 0.953125 
Q 33.9375 -1.421875 27.875 -1.421875 
Q 17.96875 -1.421875 11.734375 6.484375 
Q 5.515625 14.40625 5.515625 27.296875 
Q 5.515625 40.1875 11.734375 48.09375 
Q 17.96875 56 27.875 56 
Q 33.9375 56 38.25 53.625 
Q 42.578125 51.265625 45.40625 46.390625 
z
M 14.796875 27.296875 
Q 14.796875 17.390625 18.875 11.75 
Q 22.953125 6.109375 30.078125 6.109375 
Q 37.203125 6.109375 41.296875 11.75 
Q 45.40625 17.390625 45.40625 27.296875 
Q 45.40625 37.203125 41.296875 42.84375 
Q 37.203125 48.484375 30.078125 48.484375 
Q 22.953125 48.484375 18.875 42.84375 
Q 14.796875 37.203125 14.796875 27.296875 
z
" id="DejaVuSans-64"/>
     <path d="M 34.28125 27.484375 
Q 23.390625 27.484375 19.1875 25 
Q 14.984375 22.515625 14.984375 16.5 
Q 14.984375 11.71875 18.140625 8.90625 
Q 21.296875 6.109375 26.703125 6.109375 
Q 34.1875 6.109375 38.703125 11.40625 
Q 43.21875 16.703125 43.21875 25.484375 
L 43.21875 27.484375 
z
M 52.203125 31.203125 
L 52.203125 0 
L 43.21875 0 
L 43.21875 8.296875 
Q 40.140625 3.328125 35.546875 0.953125 
Q 30.953125 -1.421875 24.3125 -1.421875 
Q 15.921875 -1.421875 10.953125 3.296875 
Q 6 8.015625 6 15.921875 
Q 6 25.140625 12.171875 29.828125 
Q 18.359375 34.515625 30.609375 34.515625 
L 43.21875 34.515625 
L 43.21875 35.40625 
Q 43.21875 41.609375 39.140625 45 
Q 35.0625 48.390625 27.6875 48.390625 
Q 23 48.390625 18.546875 47.265625 
Q 14.109375 46.140625 10.015625 43.890625 
L 10.015625 52.203125 
Q 14.9375 54.109375 19.578125 55.046875 
Q 24.21875 56 28.609375 56 
Q 40.484375 56 46.34375 49.84375 
Q 52.203125 43.703125 52.203125 31.203125 
z
" id="DejaVuSans-61"/>
     <path d="M 9.421875 75.984375 
L 18.40625 75.984375 
L 18.40625 0 
L 9.421875 0 
z
" id="DejaVuSans-6c"/>
     <path id="DejaVuSans-20"/>
     <path d="M 4.203125 54.6875 
L 13.1875 54.6875 
L 24.421875 12.015625 
L 35.59375 54.6875 
L 46.1875 54.6875 
L 57.421875 12.015625 
L 68.609375 54.6875 
L 77.59375 54.6875 
L 63.28125 0 
L 52.6875 0 
L 40.921875 44.828125 
L 29.109375 0 
L 18.5 0 
z
" id="DejaVuSans-77"/>
     <path d="M 56.203125 29.59375 
L 56.203125 25.203125 
L 14.890625 25.203125 
Q 15.484375 15.921875 20.484375 11.0625 
Q 25.484375 6.203125 34.421875 6.203125 
Q 39.59375 6.203125 44.453125 7.46875 
Q 49.3125 8.734375 54.109375 11.28125 
L 54.109375 2.78125 
Q 49.265625 0.734375 44.1875 -0.34375 
Q 39.109375 -1.421875 33.890625 -1.421875 
Q 20.796875 -1.421875 13.15625 6.1875 
Q 5.515625 13.8125 5.515625 26.8125 
Q 5.515625 40.234375 12.765625 48.109375 
Q 20.015625 56 32.328125 56 
Q 43.359375 56 49.78125 48.890625 
Q 56.203125 41.796875 56.203125 29.59375 
z
M 47.21875 32.234375 
Q 47.125 39.59375 43.09375 43.984375 
Q 39.0625 48.390625 32.421875 48.390625 
Q 24.90625 48.390625 20.390625 44.140625 
Q 15.875 39.890625 15.1875 32.171875 
z
" id="DejaVuSans-65"/>
     <path d="M 9.421875 54.6875 
L 18.40625 54.6875 
L 18.40625 0 
L 9.421875 0 
z
M 9.421875 75.984375 
L 18.40625 75.984375 
L 18.40625 64.59375 
L 9.421875 64.59375 
z
" id="DejaVuSans-69"/>
     <path d="M 45.40625 27.984375 
Q 45.40625 37.75 41.375 43.109375 
Q 37.359375 48.484375 30.078125 48.484375 
Q 22.859375 48.484375 18.828125 43.109375 
Q 14.796875 37.75 14.796875 27.984375 
Q 14.796875 18.265625 18.828125 12.890625 
Q 22.859375 7.515625 30.078125 7.515625 
Q 37.359375 7.515625 41.375 12.890625 
Q 45.40625 18.265625 45.40625 27.984375 
z
M 54.390625 6.78125 
Q 54.390625 -7.171875 48.1875 -13.984375 
Q 42 -20.796875 29.203125 -20.796875 
Q 24.46875 -20.796875 20.265625 -20.09375 
Q 16.0625 -19.390625 12.109375 -17.921875 
L 12.109375 -9.1875 
Q 16.0625 -11.328125 19.921875 -12.34375 
Q 23.78125 -13.375 27.78125 -13.375 
Q 36.625 -13.375 41.015625 -8.765625 
Q 45.40625 -4.15625 45.40625 5.171875 
L 45.40625 9.625 
Q 42.625 4.78125 38.28125 2.390625 
Q 33.9375 0 27.875 0 
Q 17.828125 0 11.671875 7.65625 
Q 5.515625 15.328125 5.515625 27.984375 
Q 5.515625 40.671875 11.671875 48.328125 
Q 17.828125 56 27.875 56 
Q 33.9375 56 38.28125 53.609375 
Q 42.625 51.21875 45.40625 46.390625 
L 45.40625 54.6875 
L 54.390625 54.6875 
z
" id="DejaVuSans-67"/>
     <path d="M 54.890625 33.015625 
L 54.890625 0 
L 45.90625 0 
L 45.90625 32.71875 
Q 45.90625 40.484375 42.875 44.328125 
Q 39.84375 48.1875 33.796875 48.1875 
Q 26.515625 48.1875 22.3125 43.546875 
Q 18.109375 38.921875 18.109375 30.90625 
L 18.109375 0 
L 9.078125 0 
L 9.078125 75.984375 
L 18.109375 75.984375 
L 18.109375 46.1875 
Q 21.34375 51.125 25.703125 53.5625 
Q 30.078125 56 35.796875 56 
Q 45.21875 56 50.046875 50.171875 
Q 54.890625 44.34375 54.890625 33.015625 
z
" id="DejaVuSans-68"/>
     <path d="M 18.3125 70.21875 
L 18.3125 54.6875 
L 36.8125 54.6875 
L 36.8125 47.703125 
L 18.3125 47.703125 
L 18.3125 18.015625 
Q 18.3125 11.328125 20.140625 9.421875 
Q 21.96875 7.515625 27.59375 7.515625 
L 36.8125 7.515625 
L 36.8125 0 
L 27.59375 0 
Q 17.1875 0 13.234375 3.875 
Q 9.28125 7.765625 9.28125 18.015625 
L 9.28125 47.703125 
L 2.6875 47.703125 
L 2.6875 54.6875 
L 9.28125 54.6875 
L 9.28125 70.21875 
z
" id="DejaVuSans-74"/>
     <path d="M 44.28125 53.078125 
L 44.28125 44.578125 
Q 40.484375 46.53125 36.375 47.5 
Q 32.28125 48.484375 27.875 48.484375 
Q 21.1875 48.484375 17.84375 46.4375 
Q 14.5 44.390625 14.5 40.28125 
Q 14.5 37.15625 16.890625 35.375 
Q 19.28125 33.59375 26.515625 31.984375 
L 29.59375 31.296875 
Q 39.15625 29.25 43.1875 25.515625 
Q 47.21875 21.78125 47.21875 15.09375 
Q 47.21875 7.46875 41.1875 3.015625 
Q 35.15625 -1.421875 24.609375 -1.421875 
Q 20.21875 -1.421875 15.453125 -0.5625 
Q 10.6875 0.296875 5.421875 2 
L 5.421875 11.28125 
Q 10.40625 8.6875 15.234375 7.390625 
Q 20.0625 6.109375 24.8125 6.109375 
Q 31.15625 6.109375 34.5625 8.28125 
Q 37.984375 10.453125 37.984375 14.40625 
Q 37.984375 18.0625 35.515625 20.015625 
Q 33.0625 21.96875 24.703125 23.78125 
L 21.578125 24.515625 
Q 13.234375 26.265625 9.515625 29.90625 
Q 5.8125 33.546875 5.8125 39.890625 
Q 5.8125 47.609375 11.28125 51.796875 
Q 16.75 56 26.8125 56 
Q 31.78125 56 36.171875 55.265625 
Q 40.578125 54.546875 44.28125 53.078125 
z
" id="DejaVuSans-73"/>
    </defs>
    <g transform="translate(162.028437 9.118125)scale(0.12 -0.12)">
     <use xlink:href="#DejaVuSans-4e"/>
     <use x="74.804688" xlink:href="#DejaVuSans-6f"/>
     <use x="135.986328" xlink:href="#DejaVuSans-64"/>
     <use x="199.462891" xlink:href="#DejaVuSans-61"/>
     <use x="260.742188" xlink:href="#DejaVuSans-6c"/>
     <use x="288.525391" xlink:href="#DejaVuSans-20"/>
     <use x="320.3125" xlink:href="#DejaVuSans-77"/>
     <use x="402.099609" xlink:href="#DejaVuSans-65"/>
     <use x="463.623047" xlink:href="#DejaVuSans-69"/>
     <use x="491.40625" xlink:href="#DejaVuSans-67"/>
     <use x="554.882812" xlink:href="#DejaVuSans-68"/>
     <use x="618.261719" xlink:href="#DejaVuSans-74"/>
     <use x="657.470703" xlink:href="#DejaVuSans-73"/>
    </g>
   </g>
  </g>
  <g id="axes_2">
   <g id="patch_2">
    <path d="M 458.053125 378.518125 
L 833.103125 378.518125 
L 833.103125 15.118125 
L 458.053125 15.118125 
z
" style="fill:none;"/>
   </g>
   <g id="matplotlib.axis_1">
    <g id="xtick_1">
     <g id="line2d_3">
      <defs>
       <path d="M 0 0 
L 0 3.5 
" id="md5816ec063" style="stroke:#000000;stroke-width:0.8;"/>
      </defs>
      <g>
       <use style="stroke:#000000;stroke-width:0.8;" x="475.100009" xlink:href="#md5816ec063" y="378.518125"/>
      </g>
     </g>
     <g id="text_9">
      <!-- −1.00 -->
      <defs>
       <path d="M 10.59375 35.5 
L 73.1875 35.5 
L 73.1875 27.203125 
L 10.59375 27.203125 
z
" id="DejaVuSans-2212"/>
       <path d="M 10.6875 12.40625 
L 21 12.40625 
L 21 0 
L 10.6875 0 
z
" id="DejaVuSans-2e"/>
      </defs>
      <g transform="translate(459.777353 393.116562)scale(0.1 -0.1)">
       <use xlink:href="#DejaVuSans-2212"/>
       <use x="83.789062" xlink:href="#DejaVuSans-31"/>
       <use x="147.412109" xlink:href="#DejaVuSans-2e"/>
       <use x="179.199219" xlink:href="#DejaVuSans-30"/>
       <use x="242.822266" xlink:href="#DejaVuSans-30"/>
      </g>
     </g>
    </g>
    <g id="xtick_2">
     <g id="line2d_4">
      <g>
       <use style="stroke:#000000;stroke-width:0.8;" x="517.719433" xlink:href="#md5816ec063" y="378.518125"/>
      </g>
     </g>
     <g id="text_10">
      <!-- −0.75 -->
      <defs>
       <path d="M 8.203125 72.90625 
L 55.078125 72.90625 
L 55.078125 68.703125 
L 28.609375 0 
L 18.3125 0 
L 43.21875 64.59375 
L 8.203125 64.59375 
z
" id="DejaVuSans-37"/>
       <path d="M 10.796875 72.90625 
L 49.515625 72.90625 
L 49.515625 64.59375 
L 19.828125 64.59375 
L 19.828125 46.734375 
Q 21.96875 47.46875 24.109375 47.828125 
Q 26.265625 48.1875 28.421875 48.1875 
Q 40.625 48.1875 47.75 41.5 
Q 54.890625 34.8125 54.890625 23.390625 
Q 54.890625 11.625 47.5625 5.09375 
Q 40.234375 -1.421875 26.90625 -1.421875 
Q 22.3125 -1.421875 17.546875 -0.640625 
Q 12.796875 0.140625 7.71875 1.703125 
L 7.71875 11.625 
Q 12.109375 9.234375 16.796875 8.0625 
Q 21.484375 6.890625 26.703125 6.890625 
Q 35.15625 6.890625 40.078125 11.328125 
Q 45.015625 15.765625 45.015625 23.390625 
Q 45.015625 31 40.078125 35.4375 
Q 35.15625 39.890625 26.703125 39.890625 
Q 22.75 39.890625 18.8125 39.015625 
Q 14.890625 38.140625 10.796875 36.28125 
z
" id="DejaVuSans-35"/>
      </defs>
      <g transform="translate(502.396777 393.116562)scale(0.1 -0.1)">
       <use xlink:href="#DejaVuSans-2212"/>
       <use x="83.789062" xlink:href="#DejaVuSans-30"/>
       <use x="147.412109" xlink:href="#DejaVuSans-2e"/>
       <use x="179.199219" xlink:href="#DejaVuSans-37"/>
       <use x="242.822266" xlink:href="#DejaVuSans-35"/>
      </g>
     </g>
    </g>
    <g id="xtick_3">
     <g id="line2d_5">
      <g>
       <use style="stroke:#000000;stroke-width:0.8;" x="560.338856" xlink:href="#md5816ec063" y="378.518125"/>
      </g>
     </g>
     <g id="text_11">
      <!-- −0.50 -->
      <g transform="translate(545.0162 393.116562)scale(0.1 -0.1)">
       <use xlink:href="#DejaVuSans-2212"/>
       <use x="83.789062" xlink:href="#DejaVuSans-30"/>
       <use x="147.412109" xlink:href="#DejaVuSans-2e"/>
       <use x="179.199219" xlink:href="#DejaVuSans-35"/>
       <use x="242.822266" xlink:href="#DejaVuSans-30"/>
      </g>
     </g>
    </g>
    <g id="xtick_4">
     <g id="line2d_6">
      <g>
       <use style="stroke:#000000;stroke-width:0.8;" x="602.95828" xlink:href="#md5816ec063" y="378.518125"/>
      </g>
     </g>
     <g id="text_12">
      <!-- −0.25 -->
      <defs>
       <path d="M 19.1875 8.296875 
L 53.609375 8.296875 
L 53.609375 0 
L 7.328125 0 
L 7.328125 8.296875 
Q 12.9375 14.109375 22.625 23.890625 
Q 32.328125 33.6875 34.8125 36.53125 
Q 39.546875 41.84375 41.421875 45.53125 
Q 43.3125 49.21875 43.3125 52.78125 
Q 43.3125 58.59375 39.234375 62.25 
Q 35.15625 65.921875 28.609375 65.921875 
Q 23.96875 65.921875 18.8125 64.3125 
Q 13.671875 62.703125 7.8125 59.421875 
L 7.8125 69.390625 
Q 13.765625 71.78125 18.9375 73 
Q 24.125 74.21875 28.421875 74.21875 
Q 39.75 74.21875 46.484375 68.546875 
Q 53.21875 62.890625 53.21875 53.421875 
Q 53.21875 48.921875 51.53125 44.890625 
Q 49.859375 40.875 45.40625 35.40625 
Q 44.1875 33.984375 37.640625 27.21875 
Q 31.109375 20.453125 19.1875 8.296875 
z
" id="DejaVuSans-32"/>
      </defs>
      <g transform="translate(587.635624 393.116562)scale(0.1 -0.1)">
       <use xlink:href="#DejaVuSans-2212"/>
       <use x="83.789062" xlink:href="#DejaVuSans-30"/>
       <use x="147.412109" xlink:href="#DejaVuSans-2e"/>
       <use x="179.199219" xlink:href="#DejaVuSans-32"/>
       <use x="242.822266" xlink:href="#DejaVuSans-35"/>
      </g>
     </g>
    </g>
    <g id="xtick_5">
     <g id="line2d_7">
      <g>
       <use style="stroke:#000000;stroke-width:0.8;" x="645.577704" xlink:href="#md5816ec063" y="378.518125"/>
      </g>
     </g>
     <g id="text_13">
      <!-- 0.00 -->
      <g transform="translate(634.444891 393.116562)scale(0.1 -0.1)">
       <use xlink:href="#DejaVuSans-30"/>
       <use x="63.623047" xlink:href="#DejaVuSans-2e"/>
       <use x="95.410156" xlink:href="#DejaVuSans-30"/>
       <use x="159.033203" xlink:href="#DejaVuSans-30"/>
      </g>
     </g>
    </g>
    <g id="xtick_6">
     <g id="line2d_8">
      <g>
       <use style="stroke:#000000;stroke-width:0.8;" x="688.197127" xlink:href="#md5816ec063" y="378.518125"/>
      </g>
     </g>
     <g id="text_14">
      <!-- 0.25 -->
      <g transform="translate(677.064315 393.116562)scale(0.1 -0.1)">
       <use xlink:href="#DejaVuSans-30"/>
       <use x="63.623047" xlink:href="#DejaVuSans-2e"/>
       <use x="95.410156" xlink:href="#DejaVuSans-32"/>
       <use x="159.033203" xlink:href="#DejaVuSans-35"/>
      </g>
     </g>
    </g>
    <g id="xtick_7">
     <g id="line2d_9">
      <g>
       <use style="stroke:#000000;stroke-width:0.8;" x="730.816551" xlink:href="#md5816ec063" y="378.518125"/>
      </g>
     </g>
     <g id="text_15">
      <!-- 0.50 -->
      <g transform="translate(719.683738 393.116562)scale(0.1 -0.1)">
       <use xlink:href="#DejaVuSans-30"/>
       <use x="63.623047" xlink:href="#DejaVuSans-2e"/>
       <use x="95.410156" xlink:href="#DejaVuSans-35"/>
       <use x="159.033203" xlink:href="#DejaVuSans-30"/>
      </g>
     </g>
    </g>
    <g id="xtick_8">
     <g id="line2d_10">
      <g>
       <use style="stroke:#000000;stroke-width:0.8;" x="773.435974" xlink:href="#md5816ec063" y="378.518125"/>
      </g>
     </g>
     <g id="text_16">
      <!-- 0.75 -->
      <g transform="translate(762.303162 393.116562)scale(0.1 -0.1)">
       <use xlink:href="#DejaVuSans-30"/>
       <use x="63.623047" xlink:href="#DejaVuSans-2e"/>
       <use x="95.410156" xlink:href="#DejaVuSans-37"/>
       <use x="159.033203" xlink:href="#DejaVuSans-35"/>
      </g>
     </g>
    </g>
    <g id="xtick_9">
     <g id="line2d_11">
      <g>
       <use style="stroke:#000000;stroke-width:0.8;" x="816.055398" xlink:href="#md5816ec063" y="378.518125"/>
      </g>
     </g>
     <g id="text_17">
      <!-- 1.00 -->
      <g transform="translate(804.922585 393.116562)scale(0.1 -0.1)">
       <use xlink:href="#DejaVuSans-31"/>
       <use x="63.623047" xlink:href="#DejaVuSans-2e"/>
       <use x="95.410156" xlink:href="#DejaVuSans-30"/>
       <use x="159.033203" xlink:href="#DejaVuSans-30"/>
      </g>
     </g>
    </g>
    <g id="text_18">
     <!-- Re(r) -->
     <defs>
      <path d="M 44.390625 34.1875 
Q 47.5625 33.109375 50.5625 29.59375 
Q 53.5625 26.078125 56.59375 19.921875 
L 66.609375 0 
L 56 0 
L 46.6875 18.703125 
Q 43.0625 26.03125 39.671875 28.421875 
Q 36.28125 30.8125 30.421875 30.8125 
L 19.671875 30.8125 
L 19.671875 0 
L 9.8125 0 
L 9.8125 72.90625 
L 32.078125 72.90625 
Q 44.578125 72.90625 50.734375 67.671875 
Q 56.890625 62.453125 56.890625 51.90625 
Q 56.890625 45.015625 53.6875 40.46875 
Q 50.484375 35.9375 44.390625 34.1875 
z
M 19.671875 64.796875 
L 19.671875 38.921875 
L 32.078125 38.921875 
Q 39.203125 38.921875 42.84375 42.21875 
Q 46.484375 45.515625 46.484375 51.90625 
Q 46.484375 58.296875 42.84375 61.546875 
Q 39.203125 64.796875 32.078125 64.796875 
z
" id="DejaVuSans-52"/>
      <path d="M 31 75.875 
Q 24.46875 64.65625 21.28125 53.65625 
Q 18.109375 42.671875 18.109375 31.390625 
Q 18.109375 20.125 21.3125 9.0625 
Q 24.515625 -2 31 -13.1875 
L 23.1875 -13.1875 
Q 15.875 -1.703125 12.234375 9.375 
Q 8.59375 20.453125 8.59375 31.390625 
Q 8.59375 42.28125 12.203125 53.3125 
Q 15.828125 64.359375 23.1875 75.875 
z
" id="DejaVuSans-28"/>
      <path d="M 41.109375 46.296875 
Q 39.59375 47.171875 37.8125 47.578125 
Q 36.03125 48 33.890625 48 
Q 26.265625 48 22.1875 43.046875 
Q 18.109375 38.09375 18.109375 28.8125 
L 18.109375 0 
L 9.078125 0 
L 9.078125 54.6875 
L 18.109375 54.6875 
L 18.109375 46.1875 
Q 20.953125 51.171875 25.484375 53.578125 
Q 30.03125 56 36.53125 56 
Q 37.453125 56 38.578125 55.875 
Q 39.703125 55.765625 41.0625 55.515625 
z
" id="DejaVuSans-72"/>
      <path d="M 8.015625 75.875 
L 15.828125 75.875 
Q 23.140625 64.359375 26.78125 53.3125 
Q 30.421875 42.28125 30.421875 31.390625 
Q 30.421875 20.453125 26.78125 9.375 
Q 23.140625 -1.703125 15.828125 -13.1875 
L 8.015625 -13.1875 
Q 14.5 -2 17.703125 9.0625 
Q 20.90625 20.125 20.90625 31.390625 
Q 20.90625 42.671875 17.703125 53.65625 
Q 14.5 64.65625 8.015625 75.875 
z
" id="DejaVuSans-29"/>
     </defs>
     <g transform="translate(633.073438 406.794687)scale(0.1 -0.1)">
      <use xlink:href="#DejaVuSans-52"/>
      <use x="69.419922" xlink:href="#DejaVuSans-65"/>
      <use x="130.943359" xlink:href="#DejaVuSans-28"/>
      <use x="169.957031" xlink:href="#DejaVuSans-72"/>
      <use x="211.070312" xlink:href="#DejaVuSans-29"/>
     </g>
    </g>
   </g>
   <g id="matplotlib.axis_2">
    <g id="ytick_1">
     <g id="line2d_12">
      <defs>
       <path d="M 0 0 
L -3.5 0 
" id="m025ddd309c" style="stroke:#000000;stroke-width:0.8;"/>
      </defs>
      <g>
       <use style="stroke:#000000;stroke-width:0.8;" x="458.053125" xlink:href="#m025ddd309c" y="362.000147"/>
      </g>
     </g>
     <g id="text_19">
      <!-- −1.00 -->
      <g transform="translate(420.407813 365.799366)scale(0.1 -0.1)">
       <use xlink:href="#DejaVuSans-2212"/>
       <use x="83.789062" xlink:href="#DejaVuSans-31"/>
       <use x="147.412109" xlink:href="#DejaVuSans-2e"/>
       <use x="179.199219" xlink:href="#DejaVuSans-30"/>
       <use x="242.822266" xlink:href="#DejaVuSans-30"/>
      </g>
     </g>
    </g>
    <g id="ytick_2">
     <g id="line2d_13">
      <g>
       <use style="stroke:#000000;stroke-width:0.8;" x="458.053125" xlink:href="#m025ddd309c" y="320.704642"/>
      </g>
     </g>
     <g id="text_20">
      <!-- −0.75 -->
      <g transform="translate(420.407813 324.503861)scale(0.1 -0.1)">
       <use xlink:href="#DejaVuSans-2212"/>
       <use x="83.789062" xlink:href="#DejaVuSans-30"/>
       <use x="147.412109" xlink:href="#DejaVuSans-2e"/>
       <use x="179.199219" xlink:href="#DejaVuSans-37"/>
       <use x="242.822266" xlink:href="#DejaVuSans-35"/>
      </g>
     </g>
    </g>
    <g id="ytick_3">
     <g id="line2d_14">
      <g>
       <use style="stroke:#000000;stroke-width:0.8;" x="458.053125" xlink:href="#m025ddd309c" y="279.409136"/>
      </g>
     </g>
     <g id="text_21">
      <!-- −0.50 -->
      <g transform="translate(420.407813 283.208355)scale(0.1 -0.1)">
       <use xlink:href="#DejaVuSans-2212"/>
       <use x="83.789062" xlink:href="#DejaVuSans-30"/>
       <use x="147.412109" xlink:href="#DejaVuSans-2e"/>
       <use x="179.199219" xlink:href="#DejaVuSans-35"/>
       <use x="242.822266" xlink:href="#DejaVuSans-30"/>
      </g>
     </g>
    </g>
    <g id="ytick_4">
     <g id="line2d_15">
      <g>
       <use style="stroke:#000000;stroke-width:0.8;" x="458.053125" xlink:href="#m025ddd309c" y="238.113631"/>
      </g>
     </g>
     <g id="text_22">
      <!-- −0.25 -->
      <g transform="translate(420.407813 241.912849)scale(0.1 -0.1)">
       <use xlink:href="#DejaVuSans-2212"/>
       <use x="83.789062" xlink:href="#DejaVuSans-30"/>
       <use x="147.412109" xlink:href="#DejaVuSans-2e"/>
       <use x="179.199219" xlink:href="#DejaVuSans-32"/>
       <use x="242.822266" xlink:href="#DejaVuSans-35"/>
      </g>
     </g>
    </g>
    <g id="ytick_5">
     <g id="line2d_16">
      <g>
       <use style="stroke:#000000;stroke-width:0.8;" x="458.053125" xlink:href="#m025ddd309c" y="196.818125"/>
      </g>
     </g>
     <g id="text_23">
      <!-- 0.00 -->
      <g transform="translate(428.7875 200.617344)scale(0.1 -0.1)">
       <use xlink:href="#DejaVuSans-30"/>
       <use x="63.623047" xlink:href="#DejaVuSans-2e"/>
       <use x="95.410156" xlink:href="#DejaVuSans-30"/>
       <use x="159.033203" xlink:href="#DejaVuSans-30"/>
      </g>
     </g>
    </g>
    <g id="ytick_6">
     <g id="line2d_17">
      <g>
       <use style="stroke:#000000;stroke-width:0.8;" x="458.053125" xlink:href="#m025ddd309c" y="155.522619"/>
      </g>
     </g>
     <g id="text_24">
      <!-- 0.25 -->
      <g transform="translate(428.7875 159.321838)scale(0.1 -0.1)">
       <use xlink:href="#DejaVuSans-30"/>
       <use x="63.623047" xlink:href="#DejaVuSans-2e"/>
       <use x="95.410156" xlink:href="#DejaVuSans-32"/>
       <use x="159.033203" xlink:href="#DejaVuSans-35"/>
      </g>
     </g>
    </g>
    <g id="ytick_7">
     <g id="line2d_18">
      <g>
       <use style="stroke:#000000;stroke-width:0.8;" x="458.053125" xlink:href="#m025ddd309c" y="114.227114"/>
      </g>
     </g>
     <g id="text_25">
      <!-- 0.50 -->
      <g transform="translate(428.7875 118.026333)scale(0.1 -0.1)">
       <use xlink:href="#DejaVuSans-30"/>
       <use x="63.623047" xlink:href="#DejaVuSans-2e"/>
       <use x="95.410156" xlink:href="#DejaVuSans-35"/>
       <use x="159.033203" xlink:href="#DejaVuSans-30"/>
      </g>
     </g>
    </g>
    <g id="ytick_8">
     <g id="line2d_19">
      <g>
       <use style="stroke:#000000;stroke-width:0.8;" x="458.053125" xlink:href="#m025ddd309c" y="72.931608"/>
      </g>
     </g>
     <g id="text_26">
      <!-- 0.75 -->
      <g transform="translate(428.7875 76.730827)scale(0.1 -0.1)">
       <use xlink:href="#DejaVuSans-30"/>
       <use x="63.623047" xlink:href="#DejaVuSans-2e"/>
       <use x="95.410156" xlink:href="#DejaVuSans-37"/>
       <use x="159.033203" xlink:href="#DejaVuSans-35"/>
      </g>
     </g>
    </g>
    <g id="ytick_9">
     <g id="line2d_20">
      <g>
       <use style="stroke:#000000;stroke-width:0.8;" x="458.053125" xlink:href="#m025ddd309c" y="31.636103"/>
      </g>
     </g>
     <g id="text_27">
      <!-- 1.00 -->
      <g transform="translate(428.7875 35.435321)scale(0.1 -0.1)">
       <use xlink:href="#DejaVuSans-31"/>
       <use x="63.623047" xlink:href="#DejaVuSans-2e"/>
       <use x="95.410156" xlink:href="#DejaVuSans-30"/>
       <use x="159.033203" xlink:href="#DejaVuSans-30"/>
      </g>
     </g>
    </g>
    <g id="text_28">
     <!-- Im(r) -->
     <defs>
      <path d="M 9.8125 72.90625 
L 19.671875 72.90625 
L 19.671875 0 
L 9.8125 0 
z
" id="DejaVuSans-49"/>
      <path d="M 52 44.1875 
Q 55.375 50.25 60.0625 53.125 
Q 64.75 56 71.09375 56 
Q 79.640625 56 84.28125 50.015625 
Q 88.921875 44.046875 88.921875 33.015625 
L 88.921875 0 
L 79.890625 0 
L 79.890625 32.71875 
Q 79.890625 40.578125 77.09375 44.375 
Q 74.3125 48.1875 68.609375 48.1875 
Q 61.625 48.1875 57.5625 43.546875 
Q 53.515625 38.921875 53.515625 30.90625 
L 53.515625 0 
L 44.484375 0 
L 44.484375 32.71875 
Q 44.484375 40.625 41.703125 44.40625 
Q 38.921875 48.1875 33.109375 48.1875 
Q 26.21875 48.1875 22.15625 43.53125 
Q 18.109375 38.875 18.109375 30.90625 
L 18.109375 0 
L 9.078125 0 
L 9.078125 54.6875 
L 18.109375 54.6875 
L 18.109375 46.1875 
Q 21.1875 51.21875 25.484375 53.609375 
Q 29.78125 56 35.6875 56 
Q 41.65625 56 45.828125 52.96875 
Q 50 49.953125 52 44.1875 
z
" id="DejaVuSans-6d"/>
     </defs>
     <g transform="translate(414.328125 209.120469)rotate(-90)scale(0.1 -0.1)">
      <use xlink:href="#DejaVuSans-49"/>
      <use x="29.492188" xlink:href="#DejaVuSans-6d"/>
      <use x="126.904297" xlink:href="#DejaVuSans-28"/>
      <use x="165.917969" xlink:href="#DejaVuSans-72"/>
      <use x="207.03125" xlink:href="#DejaVuSans-29"/>
     </g>
    </g>
   </g>
   <g id="line2d_21">
    <path clip-path="url(#p89eb07c58a)" d="M 816.055398 196.818125 
L 815.934026 203.050095 
L 815.570084 209.273191 
L 814.964089 215.478552 
L 814.116906 221.657342 
L 813.029739 227.800764 
L 811.704137 233.90007 
L 810.141987 239.946575 
L 808.345514 245.931669 
L 806.317276 251.84683 
L 804.060161 257.683636 
L 801.577383 263.433775 
L 798.872476 269.089061 
L 795.949293 274.641439 
L 792.811996 280.083005 
L 789.465051 285.406011 
L 785.913226 290.602875 
L 782.161576 295.6662 
L 778.215445 300.588775 
L 774.080451 305.36359 
L 769.762481 309.983848 
L 765.267685 314.442969 
L 760.602462 318.734604 
L 755.773455 322.852641 
L 750.78754 326.791219 
L 745.651817 330.544727 
L 740.373599 334.107822 
L 734.9604 337.47543 
L 729.41993 340.642756 
L 723.760076 343.60529 
L 717.988898 346.358814 
L 712.114615 348.899406 
L 706.145589 351.22345 
L 700.09032 353.327636 
L 693.957431 355.208968 
L 687.755654 356.864768 
L 681.49382 358.292676 
L 675.180844 359.490661 
L 668.825717 360.457017 
L 662.437487 361.190367 
L 656.025251 361.689667 
L 649.598138 361.954206 
L 643.1653 361.983608 
L 636.735897 361.777831 
L 630.319085 361.337167 
L 623.923998 360.662245 
L 617.559745 359.754025 
L 611.235387 358.6138 
L 604.959928 357.243195 
L 598.742305 355.64416 
L 592.591372 353.818972 
L 586.515885 351.770231 
L 580.524497 349.500853 
L 574.625738 347.014071 
L 568.828007 344.313424 
L 563.139561 341.402759 
L 557.568498 338.286219 
L 552.122751 334.968243 
L 546.810076 331.453555 
L 541.638035 327.747159 
L 536.613994 323.854334 
L 531.745107 319.780621 
L 527.038306 315.531822 
L 522.500293 311.113987 
L 518.137531 306.533405 
L 513.95623 301.7966 
L 509.962346 296.910316 
L 506.161564 291.881511 
L 502.559297 286.717345 
L 499.160674 281.425171 
L 495.970534 276.012525 
L 492.993421 270.487114 
L 490.233572 264.856806 
L 487.694917 259.129618 
L 485.381072 253.313704 
L 483.295331 247.417346 
L 481.440665 241.44894 
L 479.819713 235.416984 
L 478.434784 229.330067 
L 477.287849 223.196856 
L 476.380543 217.026085 
L 475.714157 210.826539 
L 475.28964 204.607047 
L 475.107596 198.376464 
L 475.100852 197.337578 
L 475.24245 203.569147 
L 475.626587 209.791103 
L 476.252718 215.994587 
L 477.119952 222.170766 
L 478.227052 228.310845 
L 479.572443 234.406081 
L 481.154209 240.447796 
L 482.970098 246.427387 
L 485.017524 252.336339 
L 487.293572 258.166238 
L 489.795 263.908784 
L 492.518248 269.555799 
L 495.459437 275.099244 
L 498.61438 280.531223 
L 501.978584 285.844004 
L 505.547258 291.03002 
L 509.315323 296.081888 
L 513.277411 300.992415 
L 517.427882 305.754607 
L 521.760825 310.361685 
L 526.270072 314.807088 
L 530.9492 319.084486 
L 535.791548 323.18779 
L 540.790221 327.111155 
L 545.938101 330.848996 
L 551.227858 334.395991 
L 556.651959 337.747088 
L 562.202682 340.897516 
L 567.872123 343.84279 
L 573.652209 346.578715 
L 579.534709 349.101395 
L 585.511248 351.40724 
L 591.573316 353.492965 
L 597.712281 355.3556 
L 603.919401 356.992494 
L 610.185839 358.401316 
L 616.502671 359.580059 
L 622.860903 360.527045 
L 629.251482 361.240926 
L 635.665307 361.720686 
L 642.093247 361.96564 
L 648.526148 361.975441 
L 654.954851 361.750074 
L 661.370202 361.28986 
L 667.763066 360.595455 
L 674.12434 359.667847 
L 680.444967 358.508358 
L 686.715946 357.118637 
L 692.928348 355.500665 
L 699.073328 353.656744 
L 705.142135 351.589501 
L 711.126128 349.301878 
L 717.016787 346.797134 
L 722.805724 344.078835 
L 728.484696 341.150851 
L 734.045616 338.017352 
L 739.480567 334.682798 
L 744.781809 331.15194 
L 749.941795 327.429803 
L 754.953177 323.521688 
L 759.808818 319.43316 
L 764.501806 315.17004 
L 769.025458 310.738399 
L 773.373333 306.144547 
L 777.539239 301.395025 
L 781.517245 296.496595 
L 785.301687 291.456234 
L 788.887175 286.281117 
L 792.268605 280.978613 
L 795.441162 275.556274 
L 798.400328 270.021819 
L 801.14189 264.383129 
L 803.661944 258.648234 
L 805.956902 252.825298 
L 808.023496 246.922614 
L 809.858782 240.948586 
L 811.460149 234.911721 
L 812.825316 228.820614 
L 813.952339 222.683939 
L 814.839613 216.510433 
L 815.485875 210.308888 
L 815.890204 204.088133 
L 816.052026 197.857026 
L 816.055398 196.818125 
L 816.055398 196.818125 
" style="fill:none;stroke:#1f77b4;stroke-linecap:square;stroke-width:1.5;"/>
   </g>
   <g id="line2d_22">
    <path clip-path="url(#p89eb07c58a)" d="M 816.055398 196.818125 
L 815.934026 190.586155 
L 815.570084 184.363059 
L 814.964089 178.157698 
L 814.116906 171.978908 
L 813.029739 165.835486 
L 811.704137 159.73618 
L 810.141987 153.689675 
L 808.345514 147.704581 
L 806.317276 141.78942 
L 804.060161 135.952614 
L 801.577383 130.202475 
L 798.872476 124.547189 
L 795.949293 118.994811 
L 792.811996 113.553245 
L 789.465051 108.230239 
L 785.913226 103.033375 
L 782.161576 97.97005 
L 778.215445 93.047475 
L 774.080451 88.27266 
L 769.762481 83.652402 
L 765.267685 79.193281 
L 760.602462 74.901646 
L 755.773455 70.783609 
L 750.78754 66.845031 
L 745.651817 63.091523 
L 740.373599 59.528428 
L 734.9604 56.16082 
L 729.41993 52.993494 
L 723.760076 50.03096 
L 717.988898 47.277436 
L 712.114615 44.736844 
L 706.145589 42.4128 
L 700.09032 40.308614 
L 693.957431 38.427282 
L 687.755654 36.771482 
L 681.49382 35.343574 
L 675.180844 34.145589 
L 668.825717 33.179233 
L 662.437487 32.445883 
L 656.025251 31.946583 
L 649.598138 31.682044 
L 643.1653 31.652642 
L 636.735897 31.858419 
L 630.319085 32.299083 
L 623.923998 32.974005 
L 617.559745 33.882225 
L 611.235387 35.02245 
L 604.959928 36.393055 
L 598.742305 37.99209 
L 592.591372 39.817278 
L 586.515885 41.866019 
L 580.524497 44.135397 
L 574.625738 46.622179 
L 568.828007 49.322826 
L 563.139561 52.233491 
L 557.568498 55.350031 
L 552.122751 58.668007 
L 546.810076 62.182695 
L 541.638035 65.889091 
L 536.613994 69.781916 
L 531.745107 73.855629 
L 527.038306 78.104428 
L 522.500293 82.522263 
L 518.137531 87.102845 
L 513.95623 91.83965 
L 509.962346 96.725934 
L 506.161564 101.754739 
L 502.559297 106.918905 
L 499.160674 112.211079 
L 495.970534 117.623725 
L 492.993421 123.149136 
L 490.233572 128.779444 
L 487.694917 134.506632 
L 485.381072 140.322546 
L 483.295331 146.218904 
L 481.440665 152.18731 
L 479.819713 158.219266 
L 478.434784 164.306183 
L 477.287849 170.439394 
L 476.380543 176.610165 
L 475.714157 182.809711 
L 475.28964 189.029203 
L 475.107596 195.259786 
L 475.100852 196.298672 
L 475.24245 190.067103 
L 475.626587 183.845147 
L 476.252718 177.641663 
L 477.119952 171.465484 
L 478.227052 165.325405 
L 479.572443 159.230169 
L 481.154209 153.188454 
L 482.970098 147.208863 
L 485.017524 141.299911 
L 487.293572 135.470012 
L 489.795 129.727466 
L 492.518248 124.080451 
L 495.459437 118.537006 
L 498.61438 113.105027 
L 501.978584 107.792246 
L 505.547258 102.60623 
L 509.315323 97.554362 
L 513.277411 92.643835 
L 517.427882 87.881643 
L 521.760825 83.274565 
L 526.270072 78.829162 
L 530.9492 74.551764 
L 535.791548 70.44846 
L 540.790221 66.525095 
L 545.938101 62.787254 
L 551.227858 59.240259 
L 556.651959 55.889162 
L 562.202682 52.738734 
L 567.872123 49.79346 
L 573.652209 47.057535 
L 579.534709 44.534855 
L 585.511248 42.22901 
L 591.573316 40.143285 
L 597.712281 38.28065 
L 603.919401 36.643756 
L 610.185839 35.234934 
L 616.502671 34.056191 
L 622.860903 33.109205 
L 629.251482 32.395324 
L 635.665307 31.915564 
L 642.093247 31.67061 
L 648.526148 31.660809 
L 654.954851 31.886176 
L 661.370202 32.34639 
L 667.763066 33.040795 
L 674.12434 33.968403 
L 680.444967 35.127892 
L 686.715946 36.517613 
L 692.928348 38.135585 
L 699.073328 39.979506 
L 705.142135 42.046749 
L 711.126128 44.334372 
L 717.016787 46.839116 
L 722.805724 49.557415 
L 728.484696 52.485399 
L 734.045616 55.618898 
L 739.480567 58.953452 
L 744.781809 62.48431 
L 749.941795 66.206447 
L 754.953177 70.114562 
L 759.808818 74.20309 
L 764.501806 78.46621 
L 769.025458 82.897851 
L 773.373333 87.491703 
L 777.539239 92.241225 
L 781.517245 97.139655 
L 785.301687 102.180016 
L 788.887175 107.355133 
L 792.268605 112.657637 
L 795.441162 118.079976 
L 798.400328 123.614431 
L 801.14189 129.253121 
L 803.661944 134.988016 
L 805.956902 140.810952 
L 808.023496 146.713636 
L 809.858782 152.687664 
L 811.460149 158.724529 
L 812.825316 164.815636 
L 813.952339 170.952311 
L 814.839613 177.125817 
L 815.485875 183.327362 
L 815.890204 189.548117 
L 816.052026 195.779224 
L 816.055398 196.818125 
L 816.055398 196.818125 
" style="fill:none;stroke:#ff7f0e;stroke-linecap:square;stroke-width:1.5;"/>
   </g>
   <g id="patch_3">
    <path d="M 458.053125 378.518125 
L 458.053125 15.118125 
" style="fill:none;stroke:#000000;stroke-linecap:square;stroke-linejoin:miter;stroke-width:0.8;"/>
   </g>
   <g id="patch_4">
    <path d="M 833.103125 378.518125 
L 833.103125 15.118125 
" style="fill:none;stroke:#000000;stroke-linecap:square;stroke-linejoin:miter;stroke-width:0.8;"/>
   </g>
   <g id="patch_5">
    <path d="M 458.053125 378.518125 
L 833.103125 378.518125 
" style="fill:none;stroke:#000000;stroke-linecap:square;stroke-linejoin:miter;stroke-width:0.8;"/>
   </g>
   <g id="patch_6">
    <path d="M 458.053125 15.118125 
L 833.103125 15.118125 
" style="fill:none;stroke:#000000;stroke-linecap:square;stroke-linejoin:miter;stroke-width:0.8;"/>
   </g>
   <g id="text_29">
    <!-- Magnification factor -->
    <defs>
     <path d="M 9.8125 72.90625 
L 24.515625 72.90625 
L 43.109375 23.296875 
L 61.8125 72.90625 
L 76.515625 72.90625 
L 76.515625 0 
L 66.890625 0 
L 66.890625 64.015625 
L 48.09375 14.015625 
L 38.1875 14.015625 
L 19.390625 64.015625 
L 19.390625 0 
L 9.8125 0 
z
" id="DejaVuSans-4d"/>
     <path d="M 54.890625 33.015625 
L 54.890625 0 
L 45.90625 0 
L 45.90625 32.71875 
Q 45.90625 40.484375 42.875 44.328125 
Q 39.84375 48.1875 33.796875 48.1875 
Q 26.515625 48.1875 22.3125 43.546875 
Q 18.109375 38.921875 18.109375 30.90625 
L 18.109375 0 
L 9.078125 0 
L 9.078125 54.6875 
L 18.109375 54.6875 
L 18.109375 46.1875 
Q 21.34375 51.125 25.703125 53.5625 
Q 30.078125 56 35.796875 56 
Q 45.21875 56 50.046875 50.171875 
Q 54.890625 44.34375 54.890625 33.015625 
z
" id="DejaVuSans-6e"/>
     <path d="M 37.109375 75.984375 
L 37.109375 68.5 
L 28.515625 68.5 
Q 23.6875 68.5 21.796875 66.546875 
Q 19.921875 64.59375 19.921875 59.515625 
L 19.921875 54.6875 
L 34.71875 54.6875 
L 34.71875 47.703125 
L 19.921875 47.703125 
L 19.921875 0 
L 10.890625 0 
L 10.890625 47.703125 
L 2.296875 47.703125 
L 2.296875 54.6875 
L 10.890625 54.6875 
L 10.890625 58.5 
Q 10.890625 67.625 15.140625 71.796875 
Q 19.390625 75.984375 28.609375 75.984375 
z
" id="DejaVuSans-66"/>
     <path d="M 48.78125 52.59375 
L 48.78125 44.1875 
Q 44.96875 46.296875 41.140625 47.34375 
Q 37.3125 48.390625 33.40625 48.390625 
Q 24.65625 48.390625 19.8125 42.84375 
Q 14.984375 37.3125 14.984375 27.296875 
Q 14.984375 17.28125 19.8125 11.734375 
Q 24.65625 6.203125 33.40625 6.203125 
Q 37.3125 6.203125 41.140625 7.25 
Q 44.96875 8.296875 48.78125 10.40625 
L 48.78125 2.09375 
Q 45.015625 0.34375 40.984375 -0.53125 
Q 36.96875 -1.421875 32.421875 -1.421875 
Q 20.0625 -1.421875 12.78125 6.34375 
Q 5.515625 14.109375 5.515625 27.296875 
Q 5.515625 40.671875 12.859375 48.328125 
Q 20.21875 56 33.015625 56 
Q 37.15625 56 41.109375 55.140625 
Q 45.0625 54.296875 48.78125 52.59375 
z
" id="DejaVuSans-63"/>
    </defs>
    <g transform="translate(585.713125 9.118125)scale(0.12 -0.12)">
     <use xlink:href="#DejaVuSans-4d"/>
     <use x="86.279297" xlink:href="#DejaVuSans-61"/>
     <use x="147.558594" xlink:href="#DejaVuSans-67"/>
     <use x="211.035156" xlink:href="#DejaVuSans-6e"/>
     <use x="274.414062" xlink:href="#DejaVuSans-69"/>
     <use x="302.197266" xlink:href="#DejaVuSans-66"/>
     <use x="337.402344" xlink:href="#DejaVuSans-69"/>
     <use x="365.185547" xlink:href="#DejaVuSans-63"/>
     <use x="420.166016" xlink:href="#DejaVuSans-61"/>
     <use x="481.445312" xlink:href="#DejaVuSans-74"/>
     <use x="520.654297" xlink:href="#DejaVuSans-69"/>
     <use x="548.4375" xlink:href="#DejaVuSans-6f"/>
     <use x="609.619141" xlink:href="#DejaVuSans-6e"/>
     <use x="672.998047" xlink:href="#DejaVuSans-20"/>
     <use x="704.785156" xlink:href="#DejaVuSans-66"/>
     <use x="739.990234" xlink:href="#DejaVuSans-61"/>
     <use x="801.269531" xlink:href="#DejaVuSans-63"/>
     <use x="856.25" xlink:href="#DejaVuSans-74"/>
     <use x="895.458984" xlink:href="#DejaVuSans-6f"/>
     <use x="956.640625" xlink:href="#DejaVuSans-72"/>
    </g>
   </g>
  </g>
 </g>
 <defs>
  <clipPath id="p30ac6b39e1">
   <rect height="363.4" width="363.4" x="22.903125" y="15.118125"/>
  </clipPath>
  <clipPath id="p89eb07c58a">
   <rect height="363.4" width="375.05" x="458.053125" y="15.118125"/>
  </clipPath>
 </defs>
</svg>
